<?xml version="1.0" encoding="utf-8"?>
<!-- Generator: Adobe Illustrator 16.0.0, SVG Export Plug-In . SVG Version: 6.00 Build 0)  -->
<!DOCTYPE svg PUBLIC "-//W3C//DTD SVG 1.1//EN" "http://www.w3.org/Graphics/SVG/1.1/DTD/svg11.dtd">
<svg version="1.1" id="레이어_1" xmlns="http://www.w3.org/2000/svg" xmlns:xlink="http://www.w3.org/1999/xlink" x="0px"
	 y="0px" width="350px" height="480px" viewBox="0 0 350 480" enable-background="new 0 0 350 480" xml:space="preserve">
<g>
	<path d="M95.492,262.862v24.231c1.991,0.754,4.255,0.96,6.109,0.96c7.757,0,11.532-5.49,11.532-14.757
		c0-8.648-2.54-13.18-8.855-13.18C101.188,260.117,97.687,261.352,95.492,262.862 M95.492,291.625v14.346h-5.766v-49.766h4.188
		l0.823,2.884c2.747-2.13,6.521-3.847,11.051-3.847c9.063,0,13.249,6.866,13.249,18.055c0,11.531-6.18,19.426-15.995,19.426
		C100.433,292.723,97.964,292.517,95.492,291.625"/>
	<path d="M146.629,283.797v-8.647h-6.452c-6.52,0-9.474,2.197-9.474,6.863c0,3.776,2.061,5.904,5.766,5.904
		C139.834,287.917,144.226,286.133,146.629,283.797 M139.42,271.099h7.209v-2.952c0-5.696-2.538-7.963-7.344-7.963
		c-3.363,0-7.139,1.031-10.09,2.403l-1.717-4.049c3.637-2.061,8.031-3.296,11.941-3.296c8.581,0,12.771,4.118,12.771,13.178v23.615
		h-4.259l-0.686-3.981c-3.567,2.883-8.17,4.529-11.807,4.529c-6.383,0-10.225-3.843-10.225-10.297
		C125.214,274.943,130.156,271.099,139.42,271.099"/>
	<path d="M183.354,267.118c0-4.943-2.884-7.345-8.65-7.345c-5.627,0-8.578,2.401-8.578,7.345c0,4.736,2.951,7.07,8.647,7.07
		C180.471,274.188,183.354,271.854,183.354,267.118 M167.429,290.25c-1.784,2.06-2.472,3.914-2.472,6.041
		c0,4.051,3.089,6.179,9.404,6.179c6.66,0,10.846-2.403,10.846-6.52c0-3.366-2.403-5.423-7.001-5.423h-7.826
		C169.281,290.527,168.321,290.458,167.429,290.25 M168.046,277.621c-1.303,1.509-1.92,2.95-1.92,4.392
		c0,2.609,1.508,3.845,5.423,3.845h7.412c7.275,0,11.738,3.569,11.738,9.335c0,7.551-6.11,11.808-16.816,11.808
		c-9.886,0-14.142-4.12-14.142-9.337c0-3.362,1.44-6.313,4.12-8.716c-1.855-1.235-2.885-3.09-2.885-5.354
		c0-2.609,1.168-5.286,3.775-7.619c-2.677-1.991-4.118-4.943-4.118-8.855c0-7.345,5.354-11.875,14.07-11.875
		c3.914,0,6.248,0.755,8.582,2.127l5.627-5.286l3.228,5.631l-6.178,1.92c1.99,2.13,2.885,4.463,2.885,7.553
		c0,7.138-5.493,11.53-14.144,11.53C172.166,278.718,170.037,278.307,168.046,277.621"/>
	<path d="M201.75,271.717h17.917c0-8.032-2.746-11.738-8.649-11.738C205.047,259.979,201.958,264.166,201.75,271.717
		 M225.298,272.128c0,1.58-0.139,3.226-0.345,4.051h-23.134c0.343,7.826,3.706,11.669,11.258,11.669
		c3.225,0,7.071-0.823,9.887-2.197l1.507,4.12c-3.432,1.922-7.688,2.952-12.01,2.952c-10.984,0-16.682-6.386-16.682-18.672
		c0-11.806,5.697-18.809,15.442-18.809C220.218,255.242,225.298,261.351,225.298,272.128"/>
	<path d="M112.171,189.208l4.533,3.363l-11.877,14.827l13.73,16.406l-4.531,3.568l-15.995-19.699L112.171,189.208z M95.493,226.413
		h-5.766v-51.345l5.766-1.307V226.413z"/>
	<path d="M144.434,218.174v-8.647h-6.451c-6.523,0-9.475,2.197-9.475,6.863c0,3.776,2.061,5.904,5.766,5.904
		C137.639,222.294,142.031,220.51,144.434,218.174 M137.225,205.476h7.209v-2.952c0-5.696-2.541-7.963-7.348-7.963
		c-3.363,0-7.139,1.031-10.089,2.403l-1.717-4.049c3.64-2.061,8.034-3.296,11.944-3.296c8.582,0,12.768,4.118,12.768,13.178v23.615
		h-4.255l-0.687-3.981c-3.57,2.883-8.169,4.529-11.806,4.529c-6.383,0-10.229-3.843-10.229-10.297
		C123.016,209.32,127.957,205.476,137.225,205.476"/>
	<path d="M182.256,189.208l4.532,3.363l-11.877,14.827l13.728,16.406l-4.53,3.568l-15.992-19.699L182.256,189.208z M165.574,226.413
		h-5.766v-51.345l5.766-1.307V226.413z"/>
	<path d="M214.517,218.174v-8.647h-6.452c-6.52,0-9.474,2.197-9.474,6.863c0,3.776,2.061,5.904,5.767,5.904
		C207.722,222.294,212.114,220.51,214.517,218.174 M207.308,205.476h7.209v-2.952c0-5.696-2.538-7.963-7.344-7.963
		c-3.363,0-7.139,1.031-10.089,2.403l-1.718-4.049c3.637-2.061,8.031-3.296,11.941-3.296c8.582,0,12.771,4.118,12.771,13.178v23.615
		h-4.258l-0.687-3.981c-3.567,2.883-8.169,4.529-11.806,4.529c-6.383,0-10.226-3.843-10.226-10.297
		C193.103,209.32,198.044,205.476,207.308,205.476"/>
	<path d="M234.149,208.427c0,9.129,3.706,13.936,10.09,13.936c6.387,0,10.093-4.807,10.093-13.936s-3.706-14.072-10.093-14.072
		C237.855,194.354,234.149,199.298,234.149,208.427 M260.304,208.427c0,12.013-5.972,18.672-16.064,18.672
		c-10.021,0-16.061-6.659-16.061-18.672c0-12.079,6.108-18.809,16.061-18.809C254.263,189.618,260.304,196.348,260.304,208.427"/>
</g>
</svg>
