<?xml version="1.0" encoding="utf-8"?>
<!-- Generator: Adobe Illustrator 16.0.0, SVG Export Plug-In . SVG Version: 6.00 Build 0)  -->
<!DOCTYPE svg PUBLIC "-//W3C//DTD SVG 1.1//EN" "http://www.w3.org/Graphics/SVG/1.1/DTD/svg11.dtd">
<svg version="1.1" id="레이어_1" xmlns="http://www.w3.org/2000/svg" xmlns:xlink="http://www.w3.org/1999/xlink" x="0px"
	 y="0px" width="150px" height="40px" viewBox="0 0 150 40" enable-background="new 0 0 150 40" xml:space="preserve">
<g>
	<path fill="#FFE200" d="M16.513,12.023l2.278,1.69l-5.969,7.452l6.901,8.246l-2.278,1.793l-8.039-9.901L16.513,12.023z
		 M8.13,30.723H5.232V4.917L8.13,4.26V30.723z"/>
	<path fill="#FFE200" d="M32.729,26.582v-4.346h-3.243c-3.278,0-4.762,1.104-4.762,3.449c0,1.897,1.036,2.967,2.898,2.967
		C29.313,28.652,31.521,27.756,32.729,26.582 M29.105,20.2h3.624v-1.484c0-2.862-1.277-4.002-3.693-4.002
		c-1.69,0-3.588,0.518-5.071,1.208l-0.863-2.035c1.83-1.036,4.038-1.656,6.003-1.656c4.313,0,6.418,2.069,6.418,6.623v11.869h-2.139
		l-0.346-2.001c-1.794,1.449-4.105,2.276-5.934,2.276c-3.208,0-5.141-1.932-5.141-5.176C21.963,22.132,24.447,20.2,29.105,20.2"/>
	<path fill="#FFE200" d="M51.737,12.023l2.278,1.69l-5.97,7.452l6.899,8.246l-2.276,1.793l-8.037-9.901L51.737,12.023z
		 M43.354,30.723h-2.897V4.917l2.897-0.657V30.723z"/>
	<path fill="#FFE200" d="M67.952,26.582v-4.346h-3.243c-3.276,0-4.761,1.104-4.761,3.449c0,1.897,1.036,2.967,2.897,2.967
		C64.537,28.652,66.744,27.756,67.952,26.582 M64.329,20.2h3.623v-1.484c0-2.862-1.275-4.002-3.691-4.002
		c-1.689,0-3.588,0.518-5.07,1.208l-0.863-2.035c1.828-1.036,4.036-1.656,6.001-1.656c4.313,0,6.419,2.069,6.419,6.623v11.869h-2.14
		l-0.346-2.001c-1.792,1.449-4.105,2.276-5.934,2.276c-3.208,0-5.14-1.932-5.14-5.176C57.189,22.132,59.673,20.2,64.329,20.2"/>
	<path fill="#FFE200" d="M77.819,21.424c0,4.59,1.863,7.006,5.071,7.006c3.21,0,5.073-2.416,5.073-7.006
		c0-4.587-1.863-7.072-5.073-7.072C79.683,14.352,77.819,16.836,77.819,21.424 M90.966,21.424c0,6.039-3.002,9.387-8.074,9.387
		c-5.037,0-8.072-3.348-8.072-9.387c0-6.07,3.069-9.452,8.072-9.452C87.93,11.972,90.966,15.354,90.966,21.424"/>
	<g>
		<path stroke="#000000" stroke-miterlimit="10" d="M102.751,12.177c2.074,0,3.652,0.594,4.736,1.781
			c1.083,1.188,1.625,2.91,1.625,5.166c0,1.128-0.144,2.158-0.431,3.088c-0.287,0.932-0.713,1.73-1.278,2.397
			c-0.564,0.666-1.264,1.179-2.097,1.538c-0.833,0.358-1.787,0.538-2.861,0.538c-1.019,0-1.902-0.171-2.652-0.513
			s-1.366-0.812-1.848-1.41H97.89v7.973h-2.194V12.51h2.139c0.019,0.342,0.032,0.697,0.042,1.064
			c0.009,0.368,0.023,0.722,0.042,1.063h0.027c0.537-0.718,1.194-1.307,1.973-1.769C100.695,12.407,101.64,12.177,102.751,12.177z
			 M97.834,21.046c0,0.564,0.111,1.086,0.334,1.563c0.222,0.479,0.532,0.894,0.931,1.243c0.397,0.351,0.865,0.624,1.402,0.82
			c0.537,0.197,1.12,0.295,1.75,0.295c1.389,0,2.495-0.491,3.319-1.474s1.236-2.432,1.236-4.345c0-1.76-0.389-3.093-1.167-3.999
			c-0.777-0.905-1.833-1.358-3.166-1.358c-0.704,0-1.339,0.137-1.903,0.41c-0.565,0.273-1.051,0.645-1.458,1.115
			c-0.408,0.47-0.723,1.008-0.944,1.615c-0.223,0.607-0.334,1.243-0.334,1.91V21.046z"/>
		<path stroke="#000000" stroke-miterlimit="10" d="M113.446,13.561c0.777-0.444,1.639-0.82,2.583-1.128s1.944-0.461,3-0.461
			c1.796,0,3.134,0.376,4.014,1.128s1.319,1.999,1.319,3.742v9.613h-2.083c-0.037-0.343-0.061-0.688-0.069-1.038
			c-0.01-0.351-0.033-0.696-0.069-1.038c-0.5,0.769-1.214,1.354-2.14,1.756c-0.926,0.401-1.898,0.602-2.916,0.602
			c-1.574,0-2.797-0.333-3.667-0.999c-0.87-0.667-1.306-1.649-1.306-2.948c0-1.298,0.439-2.371,1.319-3.217
			c0.88-0.846,2.162-1.389,3.848-1.628c0.833-0.103,1.652-0.209,2.458-0.32s1.625-0.227,2.459-0.346V16.97
			c0-1.248-0.273-2.102-0.82-2.563c-0.546-0.461-1.402-0.692-2.569-0.692c-0.833,0-1.606,0.12-2.319,0.358
			c-0.713,0.24-1.402,0.573-2.069,1L113.446,13.561z M122.279,18.867l-4.333,0.538c-1.074,0.137-1.936,0.474-2.584,1.013
			c-0.648,0.538-0.972,1.269-0.972,2.191c0,0.82,0.282,1.436,0.847,1.846s1.319,0.615,2.264,0.615c0.63,0,1.236-0.115,1.82-0.346
			c0.583-0.23,1.092-0.538,1.527-0.923c0.435-0.385,0.782-0.833,1.042-1.346c0.259-0.513,0.389-1.043,0.389-1.589V18.867z"/>
		<path stroke="#000000" stroke-miterlimit="10" d="M129.085,31.248c0-0.137,0.092-0.196,0.277-0.179
			c0.407,0.103,0.806,0.153,1.194,0.153c0.63,0,1.218-0.158,1.764-0.474c0.547-0.317,1.005-0.928,1.375-1.833l1.028-2.358v-0.103
			l-6.278-13.945h2.417l4.473,10.639l0.5,1.307l0.416-1.307l4-10.639h2.306l-6.444,15.688c-0.296,0.7-0.606,1.337-0.931,1.909
			s-0.699,1.064-1.125,1.475s-0.916,0.726-1.472,0.948c-0.556,0.222-1.204,0.333-1.944,0.333c-0.63,0-1.148-0.068-1.556-0.205
			V31.248z"/>
	</g>
</g>
</svg>
