<?xml version="1.0" encoding="utf-8"?>
<!-- Generator: Adobe Illustrator 16.0.0, SVG Export Plug-In . SVG Version: 6.00 Build 0)  -->
<!DOCTYPE svg PUBLIC "-//W3C//DTD SVG 1.1//EN" "http://www.w3.org/Graphics/SVG/1.1/DTD/svg11.dtd">
<svg version="1.1" id="레이어_1" xmlns="http://www.w3.org/2000/svg" xmlns:xlink="http://www.w3.org/1999/xlink" x="0px"
	 y="0px" width="250px" height="40px" viewBox="0 0 250 40" enable-background="new 0 0 250 40" xml:space="preserve">
<g>
	<path fill="#FFE200" d="M20.513,13.023l2.278,1.69l-5.969,7.452l6.901,8.246l-2.278,1.793l-8.039-9.901L20.513,13.023z
		 M12.13,31.723H9.232V5.917L12.13,5.26V31.723z"/>
	<path fill="#FFE200" d="M36.729,27.582v-4.346h-3.243c-3.278,0-4.762,1.104-4.762,3.449c0,1.897,1.036,2.967,2.898,2.967
		C33.313,29.652,35.521,28.756,36.729,27.582 M33.105,21.2h3.624v-1.484c0-2.862-1.277-4.002-3.693-4.002
		c-1.69,0-3.588,0.518-5.071,1.208l-0.863-2.035c1.83-1.036,4.038-1.656,6.003-1.656c4.313,0,6.418,2.069,6.418,6.623v11.869h-2.139
		l-0.346-2.001c-1.794,1.449-4.105,2.276-5.934,2.276c-3.208,0-5.141-1.932-5.141-5.176C25.963,23.132,28.447,21.2,33.105,21.2"/>
	<path fill="#FFE200" d="M55.737,13.023l2.278,1.69l-5.97,7.452l6.899,8.246l-2.276,1.793l-8.037-9.901L55.737,13.023z
		 M47.354,31.723h-2.897V5.917l2.897-0.657V31.723z"/>
	<path fill="#FFE200" d="M71.952,27.582v-4.346h-3.243c-3.276,0-4.761,1.104-4.761,3.449c0,1.897,1.036,2.967,2.897,2.967
		C68.537,29.652,70.744,28.756,71.952,27.582 M68.329,21.2h3.623v-1.484c0-2.862-1.275-4.002-3.691-4.002
		c-1.689,0-3.588,0.518-5.07,1.208l-0.863-2.035c1.828-1.036,4.036-1.656,6.001-1.656c4.313,0,6.419,2.069,6.419,6.623v11.869h-2.14
		l-0.346-2.001c-1.792,1.449-4.105,2.276-5.934,2.276c-3.208,0-5.14-1.932-5.14-5.176C61.189,23.132,63.673,21.2,68.329,21.2"/>
	<path fill="#FFE200" d="M81.819,22.424c0,4.59,1.863,7.006,5.071,7.006c3.21,0,5.073-2.416,5.073-7.006
		c0-4.587-1.863-7.072-5.073-7.072C83.683,15.352,81.819,17.836,81.819,22.424 M94.966,22.424c0,6.039-3.002,9.387-8.074,9.387
		c-5.037,0-8.072-3.348-8.072-9.387c0-6.07,3.069-9.452,8.072-9.452C91.93,12.972,94.966,16.354,94.966,22.424"/>
</g>
<g>
	<path stroke="#000000" stroke-miterlimit="10" d="M120.157-19.253v-8.381c0-1.562-0.208-2.694-0.625-3.396
		c-0.416-0.703-1.119-1.054-2.108-1.054c-0.521,0-1.023,0.13-1.509,0.39c-0.486,0.26-0.916,0.621-1.289,1.081
		c-0.373,0.459-0.677,0.998-0.91,1.614c-0.234,0.616-0.352,1.271-0.352,1.965v7.782h-2.004v-14.159h1.978
		c0.018,0.382,0.03,0.764,0.039,1.146s0.021,0.764,0.039,1.145h0.026c0.398-0.781,0.984-1.41,1.757-1.887
		c0.771-0.477,1.601-0.716,2.485-0.716c1.162,0,2.064,0.265,2.707,0.793c0.642,0.53,1.11,1.35,1.405,2.46h0.026
		c0.521-1.058,1.184-1.865,1.99-2.421c0.808-0.555,1.688-0.833,2.643-0.833c1.631,0,2.784,0.516,3.461,1.548
		c0.677,1.033,1.016,2.547,1.016,4.542v8.381h-2.004v-8.381c0-1.562-0.209-2.694-0.625-3.396c-0.417-0.703-1.119-1.054-2.108-1.054
		c-0.503,0-0.998,0.13-1.483,0.39c-0.486,0.26-0.92,0.621-1.302,1.081c-0.382,0.459-0.686,0.998-0.91,1.614
		c-0.227,0.616-0.339,1.271-0.339,1.965c0,1.301-0.005,2.599-0.013,3.891c-0.009,1.293-0.014,2.59-0.014,3.892H120.157z"/>
	<path stroke="#000000" stroke-miterlimit="10" d="M141.369-19.019c-1.128,0-2.104-0.195-2.928-0.586
		c-0.824-0.391-1.506-0.915-2.043-1.574c-0.538-0.659-0.938-1.436-1.197-2.33c-0.261-0.894-0.391-1.843-0.391-2.85
		c0-1.059,0.139-2.043,0.416-2.954s0.689-1.692,1.236-2.343c0.547-0.65,1.232-1.162,2.057-1.536c0.823-0.373,1.773-0.56,2.85-0.56
		s2.021,0.187,2.837,0.56c0.815,0.374,1.497,0.885,2.043,1.536c0.547,0.651,0.959,1.432,1.236,2.343s0.417,1.896,0.417,2.954
		c0,1.007-0.131,1.956-0.391,2.85c-0.261,0.895-0.66,1.671-1.197,2.33c-0.538,0.659-1.22,1.184-2.043,1.574
		C143.447-19.214,142.479-19.019,141.369-19.019z M141.369-20.685c2.933,0,4.398-1.883,4.398-5.648c0-3.834-1.466-5.751-4.398-5.751
		s-4.398,1.917-4.398,5.751C136.971-22.567,138.437-20.685,141.369-20.685z"/>
	<path stroke="#000000" stroke-miterlimit="10" d="M158.834-33.75c0.989,0,1.843,0.169,2.563,0.508
		c0.72,0.338,1.323,0.816,1.809,1.432s0.846,1.357,1.08,2.225c0.234,0.868,0.352,1.831,0.352,2.889c0,1.146-0.13,2.187-0.391,3.124
		c-0.26,0.937-0.646,1.743-1.158,2.42s-1.149,1.201-1.913,1.575c-0.764,0.373-1.648,0.56-2.654,0.56
		c-0.938,0-1.74-0.183-2.407-0.547c-0.669-0.364-1.229-0.867-1.679-1.51h-0.026l-0.078,1.822h-2.134v-21.108h2.056v9.24h0.052
		c0.434-0.781,1.032-1.414,1.796-1.9S157.775-33.75,158.834-33.75z M154.279-24.953c0,0.643,0.104,1.224,0.312,1.744
		c0.209,0.521,0.499,0.963,0.872,1.327s0.812,0.646,1.314,0.846c0.503,0.2,1.041,0.3,1.614,0.3c1.301,0,2.316-0.503,3.045-1.51
		c0.729-1.006,1.093-2.481,1.093-4.425c0-1.734-0.351-3.071-1.054-4.008s-1.652-1.405-2.85-1.405c-0.608,0-1.172,0.13-1.692,0.39
		s-0.98,0.621-1.379,1.081c-0.399,0.459-0.712,0.989-0.938,1.587s-0.338,1.236-0.338,1.913V-24.953z"/>
	<path stroke="#000000" stroke-miterlimit="10" d="M170.988-33.412v14.159h-2.082v-14.159H170.988z"/>
	<path stroke="#000000" stroke-miterlimit="10" d="M178.536-40.387v21.134h-2.03v-21.134H178.536z"/>
	<path stroke="#000000" stroke-miterlimit="10" d="M186.291-33.412v14.159h-2.082v-14.159H186.291z"/>
	<path stroke="#000000" stroke-miterlimit="10" d="M198.446-21.257c0.19-0.139,0.286-0.096,0.286,0.13v1.457
		c-0.347,0.261-0.759,0.442-1.236,0.547s-0.95,0.156-1.418,0.156c-1.302,0.017-2.243-0.247-2.824-0.794
		c-0.582-0.547-0.872-1.471-0.872-2.771v-9.318h-2.551v-1.562h2.551v-3.54h2.057v3.54h3.773v1.562h-3.773v9.032
		c0,0.398,0.021,0.732,0.064,1.002c0.043,0.269,0.131,0.485,0.261,0.65s0.316,0.286,0.56,0.364c0.242,0.078,0.563,0.117,0.963,0.117
		c0.313,0,0.668-0.048,1.067-0.144C197.752-20.923,198.116-21.066,198.446-21.257z"/>
	<path stroke="#000000" stroke-miterlimit="10" d="M201.153-14.386c0-0.14,0.086-0.2,0.26-0.183
		c0.382,0.104,0.755,0.156,1.119,0.156c0.59,0,1.141-0.16,1.652-0.481s0.941-0.941,1.289-1.861l0.963-2.395v-0.104l-5.882-14.159
		h2.264l4.19,10.802l0.469,1.327l0.391-1.327l3.748-10.802h2.16l-6.039,15.929c-0.277,0.711-0.568,1.357-0.871,1.939
		c-0.304,0.581-0.655,1.08-1.055,1.496c-0.399,0.417-0.858,0.737-1.379,0.963s-1.129,0.339-1.822,0.339
		c-0.59,0-1.076-0.069-1.457-0.208V-14.386z"/>
</g>
<g>
	<path d="M169.799-39.474c0.187,0.534,0.499,1.038,0.938,1.514c0.44,0.475,0.977,0.813,1.611,1.016
		c-0.648,0.115-1.182,0.415-1.601,0.896c-0.418,0.483-0.735,1.027-0.949,1.632c-0.232-0.605-0.549-1.149-0.954-1.632
		c-0.4-0.482-0.929-0.781-1.576-0.896c0.634-0.202,1.17-0.541,1.61-1.016C169.318-38.436,169.624-38.94,169.799-39.474z"/>
</g>
<g>
	<path d="M185.049-39.474c0.187,0.534,0.499,1.038,0.938,1.514c0.44,0.475,0.977,0.813,1.611,1.016
		c-0.648,0.115-1.182,0.415-1.601,0.896c-0.418,0.483-0.735,1.027-0.949,1.632c-0.232-0.605-0.549-1.149-0.954-1.632
		c-0.4-0.482-0.929-0.781-1.576-0.896c0.634-0.202,1.17-0.541,1.61-1.016C184.568-38.436,184.874-38.94,185.049-39.474z"/>
</g>
<g>
	<path d="M104.559,33.363c1.637,0,2.795-0.388,3.473-1.162c0.677-0.775,0.999-1.911,0.964-3.407l-0.026-1.796
		c-0.44,0.669-1.021,1.188-1.743,1.559c-0.722,0.369-1.532,0.555-2.43,0.555c-1.972,0-3.491-0.577-4.556-1.73
		c-1.065-1.153-1.598-2.874-1.598-5.163c0-1.215,0.132-2.315,0.396-3.302c0.264-0.986,0.656-1.831,1.175-2.535
		c0.519-0.704,1.162-1.246,1.928-1.625c0.766-0.378,1.65-0.568,2.654-0.568c0.951,0,1.756,0.185,2.417,0.555
		c0.66,0.37,1.202,0.863,1.624,1.479h0.026c0.035-0.299,0.062-0.585,0.08-0.858c0.017-0.272,0.043-0.55,0.079-0.832h2.958v13.391
		c0,2.746-0.572,4.744-1.717,5.995c-1.145,1.25-3.002,1.875-5.573,1.875c-1.003,0-1.88-0.093-2.628-0.277
		c-0.749-0.185-1.492-0.48-2.231-0.885l1.294-2.219c0.599,0.334,1.171,0.576,1.717,0.727
		C103.388,33.288,103.96,33.363,104.559,33.363z M108.996,20.712c0-0.563-0.093-1.092-0.277-1.585
		c-0.185-0.493-0.436-0.92-0.753-1.281s-0.696-0.647-1.136-0.858s-0.916-0.317-1.426-0.317c-1.162,0-2.06,0.467-2.694,1.4
		c-0.634,0.933-0.951,2.307-0.951,4.12c0,0.792,0.088,1.479,0.264,2.06c0.176,0.581,0.418,1.057,0.727,1.427
		c0.308,0.369,0.673,0.643,1.096,0.818c0.423,0.177,0.88,0.265,1.374,0.265c1.215,0,2.148-0.396,2.799-1.188
		c0.651-0.793,0.978-1.831,0.978-3.117V20.712z"/>
	<path d="M116.84,15.721c0.845-0.563,1.748-1,2.707-1.308c0.959-0.308,2.003-0.462,3.13-0.462c1.796,0,3.094,0.422,3.896,1.268
		c0.801,0.845,1.201,2.201,1.201,4.067v10.063h-2.746l-0.132-1.901h-0.027c-0.458,0.669-1.087,1.205-1.888,1.61
		c-0.801,0.405-1.651,0.607-2.549,0.607c-1.549,0.018-2.747-0.352-3.592-1.108s-1.268-1.85-1.268-3.275s0.431-2.584,1.294-3.473
		c0.863-0.889,2.122-1.457,3.777-1.704l4.12-0.66v-0.158c0-1.021-0.189-1.739-0.568-2.153c-0.379-0.413-1.043-0.621-1.994-0.621
		c-0.669,0-1.347,0.106-2.034,0.317c-0.687,0.211-1.382,0.555-2.086,1.03L116.84,15.721z M124.842,21.689l-3.328,0.449
		c-0.916,0.123-1.629,0.422-2.139,0.897c-0.511,0.476-0.766,1.136-0.766,1.981c0,0.739,0.215,1.28,0.647,1.624
		c0.432,0.343,1.017,0.515,1.756,0.515c0.493,0,0.968-0.105,1.426-0.316c0.458-0.212,0.863-0.493,1.215-0.846
		c0.352-0.352,0.638-0.753,0.858-1.201c0.22-0.449,0.33-0.911,0.33-1.387V21.689z"/>
	<path d="M142.671,17.015c1.126-1.866,2.667-2.8,4.621-2.8c0.863,0,1.599,0.146,2.206,0.436s1.096,0.709,1.466,1.254
		c0.369,0.546,0.638,1.22,0.806,2.021c0.167,0.801,0.25,1.712,0.25,2.733v8.663h-2.984v-8.927c0-1.373-0.181-2.351-0.541-2.932
		c-0.361-0.581-0.964-0.871-1.81-0.871c-0.422,0-0.832,0.105-1.228,0.317c-0.396,0.211-0.753,0.506-1.07,0.885
		c-0.316,0.378-0.567,0.841-0.752,1.386c-0.186,0.546-0.277,1.162-0.277,1.849v8.293h-2.905v-8.583c0-1.497-0.168-2.562-0.502-3.196
		c-0.335-0.634-0.925-0.951-1.77-0.951c-1.004,0-1.822,0.409-2.456,1.228c-0.634,0.818-0.951,1.977-0.951,3.473v8.029h-2.984v-14.79
		h2.853c0.018,0.334,0.035,0.66,0.053,0.977s0.044,0.643,0.079,0.977h0.026c0.458-0.739,1.039-1.303,1.743-1.69
		c0.704-0.387,1.427-0.581,2.166-0.581c1.073,0,1.923,0.243,2.549,0.727c0.624,0.484,1.087,1.175,1.387,2.073H142.671z"/>
	<path d="M168.686,27.896c-0.581,0.616-1.392,1.065-2.431,1.348c-1.039,0.281-2.165,0.422-3.38,0.422
		c-1.057,0-2.025-0.171-2.905-0.515c-0.881-0.343-1.634-0.845-2.259-1.505c-0.625-0.661-1.113-1.466-1.466-2.417
		s-0.528-2.034-0.528-3.249c0-1.144,0.172-2.196,0.516-3.156c0.343-0.959,0.827-1.783,1.452-2.469
		c0.625-0.687,1.374-1.219,2.245-1.598c0.872-0.378,1.826-0.568,2.866-0.568c2.077,0,3.661,0.621,4.754,1.862
		c1.091,1.241,1.637,3.06,1.637,5.454v1.056h-10.432v0.133c0.088,1.549,0.528,2.693,1.32,3.433c0.792,0.74,1.849,1.109,3.169,1.109
		c0.757,0,1.506-0.114,2.245-0.343s1.417-0.555,2.034-0.978L168.686,27.896z M158.887,20.263h7.131v-0.079
		c0-1.232-0.291-2.161-0.872-2.787c-0.58-0.625-1.373-0.938-2.377-0.938c-0.95,0-1.782,0.334-2.495,1.003
		c-0.713,0.669-1.176,1.585-1.387,2.747V20.263z"/>
	<path d="M181.15,17.807c-0.634-0.44-1.241-0.766-1.822-0.978c-0.581-0.211-1.215-0.317-1.901-0.317
		c-1.338,0-2.007,0.528-2.007,1.585c0,0.563,0.167,0.977,0.501,1.241c0.335,0.264,0.757,0.502,1.269,0.713l1.717,0.74
		c0.545,0.247,1.064,0.501,1.558,0.766c0.493,0.264,0.92,0.563,1.281,0.897c0.36,0.335,0.646,0.723,0.858,1.162
		c0.211,0.44,0.316,0.96,0.316,1.559c0,0.704-0.145,1.334-0.436,1.889c-0.29,0.554-0.691,1.029-1.201,1.426
		c-0.512,0.396-1.109,0.7-1.796,0.911c-0.688,0.211-1.436,0.317-2.245,0.317c-0.916,0-1.827-0.119-2.733-0.357
		c-0.907-0.237-1.783-0.655-2.628-1.254l1.241-2.14c0.687,0.405,1.368,0.723,2.047,0.951c0.678,0.229,1.333,0.343,1.968,0.343
		c1.76,0,2.641-0.643,2.641-1.928c0-0.404-0.158-0.757-0.476-1.057c-0.316-0.299-0.818-0.598-1.505-0.897l-1.532-0.66
		c-1.303-0.563-2.289-1.176-2.958-1.836s-1.004-1.563-1.004-2.707c0-0.581,0.119-1.113,0.356-1.598
		c0.238-0.484,0.581-0.902,1.03-1.254c0.449-0.352,0.995-0.629,1.638-0.832c0.643-0.202,1.378-0.304,2.205-0.304
		c0.81,0,1.603,0.11,2.377,0.33c0.774,0.221,1.585,0.612,2.43,1.175L181.15,17.807z"/>
</g>
</svg>
