<?xml version="1.0" encoding="utf-8"?>
<!-- Generator: Adobe Illustrator 16.0.0, SVG Export Plug-In . SVG Version: 6.00 Build 0)  -->
<!DOCTYPE svg PUBLIC "-//W3C//DTD SVG 1.1//EN" "http://www.w3.org/Graphics/SVG/1.1/DTD/svg11.dtd">
<svg version="1.1" id="ë ˆì´ì–´_1" xmlns="http://www.w3.org/2000/svg" xmlns:xlink="http://www.w3.org/1999/xlink" x="0px"
	 y="0px" width="160px" height="40px" viewBox="0 0 160 40" enable-background="new 0 0 160 40" xml:space="preserve">
<g>
	<path fill="#FFE200" d="M20.513,13.023l2.278,1.69l-5.969,7.452l6.901,8.246l-2.278,1.793l-8.039-9.901L20.513,13.023z
		 M12.13,31.723H9.232V5.917L12.13,5.26V31.723z"/>
	<path fill="#FFE200" d="M36.729,27.582v-4.346h-3.243c-3.278,0-4.762,1.104-4.762,3.449c0,1.897,1.036,2.967,2.898,2.967
		C33.313,29.652,35.521,28.756,36.729,27.582 M33.105,21.2h3.624v-1.484c0-2.862-1.277-4.002-3.693-4.002
		c-1.69,0-3.588,0.518-5.071,1.208l-0.863-2.035c1.83-1.036,4.038-1.656,6.003-1.656c4.313,0,6.418,2.069,6.418,6.623v11.869h-2.139
		l-0.346-2.001c-1.794,1.449-4.105,2.276-5.934,2.276c-3.208,0-5.141-1.932-5.141-5.176C25.963,23.132,28.447,21.2,33.105,21.2"/>
	<path fill="#FFE200" d="M55.737,13.023l2.278,1.69l-5.97,7.452l6.899,8.246l-2.276,1.793l-8.037-9.901L55.737,13.023z
		 M47.354,31.723h-2.897V5.917l2.897-0.657V31.723z"/>
	<path fill="#FFE200" d="M71.952,27.582v-4.346h-3.243c-3.276,0-4.761,1.104-4.761,3.449c0,1.897,1.036,2.967,2.897,2.967
		C68.537,29.652,70.744,28.756,71.952,27.582 M68.329,21.2h3.623v-1.484c0-2.862-1.275-4.002-3.691-4.002
		c-1.689,0-3.588,0.518-5.07,1.208l-0.863-2.035c1.828-1.036,4.036-1.656,6.001-1.656c4.313,0,6.419,2.069,6.419,6.623v11.869h-2.14
		l-0.346-2.001c-1.792,1.449-4.105,2.276-5.934,2.276c-3.208,0-5.14-1.932-5.14-5.176C61.189,23.132,63.673,21.2,68.329,21.2"/>
	<path fill="#FFE200" d="M81.819,22.424c0,4.59,1.863,7.006,5.071,7.006c3.21,0,5.073-2.416,5.073-7.006
		c0-4.587-1.863-7.072-5.073-7.072C83.683,15.352,81.819,17.836,81.819,22.424 M94.966,22.424c0,6.039-3.002,9.387-8.074,9.387
		c-5.037,0-8.072-3.348-8.072-9.387c0-6.07,3.069-9.452,8.072-9.452C91.93,12.972,94.966,16.354,94.966,22.424"/>
</g>
<text transform="matrix(1 0 0 1 97.373 30.0068)" stroke="#000000" stroke-miterlimit="10" font-family="'HancomGothicRegular'" font-size="26.0273" letter-spacing="1">bank</text>
</svg>
