<?xml version="1.0" encoding="utf-8"?>
<!-- Generator: Adobe Illustrator 16.0.0, SVG Export Plug-In . SVG Version: 6.00 Build 0)  -->
<!DOCTYPE svg PUBLIC "-//W3C//DTD SVG 1.1//EN" "http://www.w3.org/Graphics/SVG/1.1/DTD/svg11.dtd">
<svg version="1.1" id="레이어_1" xmlns="http://www.w3.org/2000/svg" xmlns:xlink="http://www.w3.org/1999/xlink" x="0px"
	 y="0px" width="150px" height="40px" viewBox="0 0 150 40" enable-background="new 0 0 150 40" xml:space="preserve">
<g>
	<path fill="#FFE200" d="M26.513,12.023l2.278,1.69l-5.969,7.452l6.901,8.246l-2.278,1.793l-8.039-9.901L26.513,12.023z
		 M18.13,30.723h-2.898V4.917L18.13,4.26V30.723z"/>
	<path fill="#FFE200" d="M42.729,26.582v-4.346h-3.243c-3.278,0-4.762,1.104-4.762,3.449c0,1.897,1.036,2.967,2.898,2.967
		C39.313,28.652,41.521,27.756,42.729,26.582 M39.105,20.2h3.624v-1.484c0-2.862-1.277-4.002-3.693-4.002
		c-1.69,0-3.588,0.518-5.071,1.208l-0.863-2.035c1.83-1.036,4.038-1.656,6.003-1.656c4.313,0,6.418,2.069,6.418,6.623v11.869h-2.139
		l-0.346-2.001c-1.794,1.449-4.105,2.276-5.934,2.276c-3.208,0-5.141-1.932-5.141-5.176C31.963,22.132,34.447,20.2,39.105,20.2"/>
	<path fill="#FFE200" d="M61.737,12.023l2.278,1.69l-5.97,7.452l6.899,8.246l-2.276,1.793l-8.037-9.901L61.737,12.023z
		 M53.354,30.723h-2.897V4.917l2.897-0.657V30.723z"/>
	<path fill="#FFE200" d="M77.952,26.582v-4.346h-3.243c-3.276,0-4.761,1.104-4.761,3.449c0,1.897,1.036,2.967,2.897,2.967
		C74.537,28.652,76.744,27.756,77.952,26.582 M74.329,20.2h3.623v-1.484c0-2.862-1.275-4.002-3.691-4.002
		c-1.689,0-3.588,0.518-5.07,1.208l-0.863-2.035c1.828-1.036,4.036-1.656,6.001-1.656c4.313,0,6.419,2.069,6.419,6.623v11.869h-2.14
		l-0.346-2.001c-1.792,1.449-4.105,2.276-5.934,2.276c-3.208,0-5.14-1.932-5.14-5.176C67.189,22.132,69.673,20.2,74.329,20.2"/>
	<path fill="#FFE200" d="M87.819,21.424c0,4.59,1.863,7.006,5.071,7.006c3.21,0,5.073-2.416,5.073-7.006
		c0-4.587-1.863-7.072-5.073-7.072C89.683,14.352,87.819,16.836,87.819,21.424 M100.966,21.424c0,6.039-3.002,9.387-8.074,9.387
		c-5.037,0-8.072-3.348-8.072-9.387c0-6.07,3.069-9.452,8.072-9.452C97.93,11.972,100.966,15.354,100.966,21.424"/>
</g>
</svg>
