<svg xmlns="http://www.w3.org/2000/svg" xml:space="preserve" width="419.30301" height="200" viewBox="0 0 419.30301 200"><path d="M0 0v-14.339c1.178-.446 2.518-.568 3.615-.568 4.59 0 6.824 3.249 6.824 8.732 0 5.118-1.503 7.799-5.24 7.799C3.371 1.624 1.299.894 0 0m0-17.02v-8.489h-3.412V3.939h2.478l.487-1.706c1.625 1.26 3.859 2.276 6.539 2.276 5.363 0 7.84-4.063 7.84-10.684 0-6.823-3.657-11.495-9.465-11.495-1.543 0-3.004.122-4.467.65" style="fill:#000;fill-opacity:1;fill-rule:nonzero;stroke:none" transform="matrix(1.68993 0 0 -1.68993 254.491 155.862)"/><path d="M0 0v5.117h-3.818c-3.858 0-5.606-1.3-5.606-4.061 0-2.235 1.219-3.494 3.412-3.494C-4.021-2.438-1.422-1.382 0 0m-4.266 7.514H0v1.747c0 3.371-1.502 4.712-4.346 4.712-1.99 0-4.224-.61-5.97-1.422l-1.016 2.396c2.152 1.219 4.752 1.95 7.066 1.95 5.078 0 7.557-2.437 7.557-7.798V-4.875H.771L.365-2.519c-2.111-1.706-4.834-2.68-6.986-2.68-3.777 0-6.051 2.274-6.051 6.093 0 4.345 2.924 6.62 8.406 6.62" style="fill:#000;fill-opacity:1;fill-rule:nonzero;stroke:none" transform="matrix(1.68993 0 0 -1.68993 305.628 176.797)"/><path d="M0 0c0 2.925-1.707 4.346-5.119 4.346-3.33 0-5.076-1.421-5.076-4.346 0-2.803 1.746-4.184 5.117-4.184S0-2.803 0 0m-9.424-13.688c-1.056-1.219-1.463-2.316-1.463-3.575 0-2.397 1.828-3.656 5.565-3.656 3.941 0 6.418 1.422 6.418 3.858 0 1.992-1.422 3.209-4.143 3.209h-4.631c-.65 0-1.218.041-1.746.164m.365 7.473c-.771-.893-1.136-1.746-1.136-2.599 0-1.544.892-2.275 3.209-2.275H-2.6c4.305 0 6.946-2.112 6.946-5.524 0-4.468-3.616-6.987-9.951-6.987-5.85 0-8.368 2.438-8.368 5.525 0 1.99.852 3.736 2.438 5.158-1.098.731-1.707 1.828-1.707 3.168 0 1.544.691 3.128 2.234 4.509-1.584 1.178-2.437 2.925-2.437 5.24 0 4.346 3.168 7.027 8.326 7.027 2.316 0 3.697-.447 5.078-1.259l3.33 3.128 1.91-3.332-3.656-1.136C2.721 3.168 3.25 1.787 3.25-.041c0-4.224-3.25-6.823-8.369-6.823-1.502 0-2.762.243-3.94.649" style="fill:#000;fill-opacity:1;fill-rule:nonzero;stroke:none" transform="matrix(1.68993 0 0 -1.68993 342.354 160.118)"/><path d="M0 0h10.602c0 4.753-1.625 6.946-5.118 6.946C1.951 6.946.123 4.468 0 0m13.934-.243c0-.935-.082-1.909-.204-2.397H.041c.203-4.631 2.193-6.905 6.662-6.905 1.908 0 4.184.487 5.85 1.3l.892-2.438c-2.031-1.137-4.549-1.747-7.107-1.747-6.5 0-9.871 3.779-9.871 11.049 0 6.986 3.371 11.13 9.138 11.13 5.323 0 8.329-3.615 8.329-9.992" style="fill:#000;fill-opacity:1;fill-rule:nonzero;stroke:none" transform="matrix(1.68993 0 0 -1.68993 360.749 164.717)"/><path d="m0 0 2.682-1.99-7.028-8.774 8.125-9.708-2.681-2.112-9.465 11.657zm-9.869-22.016h-3.412V8.367l3.412.773z" style="fill:#000;fill-opacity:1;fill-rule:nonzero;stroke:none" transform="matrix(1.68993 0 0 -1.68993 271.17 82.208)"/><path d="M0 0v5.117h-3.818c-3.86 0-5.606-1.3-5.606-4.061 0-2.235 1.219-3.494 3.412-3.494C-4.021-2.438-1.422-1.382 0 0m-4.266 7.514H0v1.747c0 3.371-1.504 4.712-4.348 4.712-1.99 0-4.224-.61-5.97-1.422l-1.016 2.396c2.154 1.219 4.754 1.95 7.068 1.95 5.078 0 7.555-2.437 7.555-7.798V-4.875H.771L.365-2.519c-2.113-1.706-4.834-2.68-6.986-2.68-3.777 0-6.053 2.274-6.053 6.093 0 4.345 2.924 6.62 8.408 6.62" style="fill:#000;fill-opacity:1;fill-rule:nonzero;stroke:none" transform="matrix(1.68993 0 0 -1.68993 303.433 111.174)"/><path d="m0 0 2.682-1.99-7.028-8.774 8.123-9.708-2.681-2.112-9.463 11.657zm-9.871-22.016h-3.412V8.367l3.412.773z" style="fill:#000;fill-opacity:1;fill-rule:nonzero;stroke:none" transform="matrix(1.68993 0 0 -1.68993 341.255 82.208)"/><path d="M0 0v5.117h-3.818c-3.858 0-5.606-1.3-5.606-4.061 0-2.235 1.219-3.494 3.412-3.494C-4.021-2.438-1.422-1.382 0 0m-4.266 7.514H0v1.747c0 3.371-1.502 4.712-4.346 4.712-1.99 0-4.224-.61-5.97-1.422l-1.016 2.396c2.152 1.219 4.752 1.95 7.066 1.95 5.078 0 7.557-2.437 7.557-7.798V-4.875H.771L.365-2.519c-2.111-1.706-4.834-2.68-6.986-2.68-3.777 0-6.051 2.274-6.051 6.093 0 4.345 2.924 6.62 8.406 6.62" style="fill:#000;fill-opacity:1;fill-rule:nonzero;stroke:none" transform="matrix(1.68993 0 0 -1.68993 373.516 111.174)"/><path d="M0 0c0-5.402 2.193-8.246 5.971-8.246 3.779 0 5.972 2.844 5.972 8.246 0 5.402-2.193 8.327-5.972 8.327C2.193 8.327 0 5.402 0 0m15.477 0c0-7.108-3.534-11.049-9.506-11.049-5.93 0-9.504 3.941-9.504 11.049 0 7.148 3.615 11.13 9.504 11.13 5.931 0 9.506-3.982 9.506-11.13" style="fill:#000;fill-opacity:1;fill-rule:nonzero;stroke:none" transform="matrix(1.68993 0 0 -1.68993 393.148 101.427)"/><path d="m0 0-47.094-47.094h-70.638V70.639H0Z" style="fill:#000;fill-opacity:1;fill-rule:nonzero;stroke:none" transform="matrix(1.68993 0 0 -1.68993 198.958 119.375)"/><path d="M0 0v-47.094L47.094 0Z" style="fill:#ffbc00;fill-opacity:1;fill-rule:nonzero;stroke:none" transform="matrix(1.68993 0 0 -1.68993 119.373 119.375)"/></svg>