<?xml version="1.0" encoding="utf-8"?>
<!-- Generator: Adobe Illustrator 16.0.0, SVG Export Plug-In . SVG Version: 6.00 Build 0)  -->
<!DOCTYPE svg PUBLIC "-//W3C//DTD SVG 1.1//EN" "http://www.w3.org/Graphics/SVG/1.1/DTD/svg11.dtd">
<svg version="1.1" id="레이어_1" xmlns="http://www.w3.org/2000/svg" xmlns:xlink="http://www.w3.org/1999/xlink" x="0px"
	 y="0px" width="250px" height="40px" viewBox="0 0 250 40" enable-background="new 0 0 250 40" xml:space="preserve">
<g>
	<path fill="#FFE200" d="M20.513,13.023l2.278,1.69l-5.969,7.452l6.901,8.246l-2.278,1.793l-8.039-9.901L20.513,13.023z
		 M12.13,31.723H9.232V5.917L12.13,5.26V31.723z"/>
	<path fill="#FFE200" d="M36.729,27.582v-4.346h-3.243c-3.278,0-4.762,1.104-4.762,3.449c0,1.897,1.036,2.967,2.898,2.967
		C33.313,29.652,35.521,28.756,36.729,27.582 M33.105,21.2h3.624v-1.484c0-2.862-1.277-4.002-3.693-4.002
		c-1.69,0-3.588,0.518-5.071,1.208l-0.863-2.035c1.83-1.036,4.038-1.656,6.003-1.656c4.313,0,6.418,2.069,6.418,6.623v11.869h-2.139
		l-0.346-2.001c-1.794,1.449-4.105,2.276-5.934,2.276c-3.208,0-5.141-1.932-5.141-5.176C25.963,23.132,28.447,21.2,33.105,21.2"/>
	<path fill="#FFE200" d="M55.737,13.023l2.278,1.69l-5.97,7.452l6.899,8.246l-2.276,1.793l-8.037-9.901L55.737,13.023z
		 M47.354,31.723h-2.897V5.917l2.897-0.657V31.723z"/>
	<path fill="#FFE200" d="M71.952,27.582v-4.346h-3.243c-3.276,0-4.761,1.104-4.761,3.449c0,1.897,1.036,2.967,2.897,2.967
		C68.537,29.652,70.744,28.756,71.952,27.582 M68.329,21.2h3.623v-1.484c0-2.862-1.275-4.002-3.691-4.002
		c-1.689,0-3.588,0.518-5.07,1.208l-0.863-2.035c1.828-1.036,4.036-1.656,6.001-1.656c4.313,0,6.419,2.069,6.419,6.623v11.869h-2.14
		l-0.346-2.001c-1.792,1.449-4.105,2.276-5.934,2.276c-3.208,0-5.14-1.932-5.14-5.176C61.189,23.132,63.673,21.2,68.329,21.2"/>
	<path fill="#FFE200" d="M81.819,22.424c0,4.59,1.863,7.006,5.071,7.006c3.21,0,5.073-2.416,5.073-7.006
		c0-4.587-1.863-7.072-5.073-7.072C83.683,15.352,81.819,17.836,81.819,22.424 M94.966,22.424c0,6.039-3.002,9.387-8.074,9.387
		c-5.037,0-8.072-3.348-8.072-9.387c0-6.07,3.069-9.452,8.072-9.452C91.93,12.972,94.966,16.354,94.966,22.424"/>
</g>
<g>
	<path stroke="#000000" stroke-miterlimit="10" d="M120.157-19.253v-8.381c0-1.562-0.208-2.694-0.625-3.396
		c-0.416-0.703-1.119-1.054-2.108-1.054c-0.521,0-1.023,0.13-1.509,0.39c-0.486,0.26-0.916,0.621-1.289,1.081
		c-0.373,0.459-0.677,0.998-0.91,1.614c-0.234,0.616-0.352,1.271-0.352,1.965v7.782h-2.004v-14.159h1.978
		c0.018,0.382,0.03,0.764,0.039,1.146s0.021,0.764,0.039,1.145h0.026c0.398-0.781,0.984-1.41,1.757-1.887
		c0.771-0.477,1.601-0.716,2.485-0.716c1.162,0,2.064,0.265,2.707,0.793c0.642,0.53,1.11,1.35,1.405,2.46h0.026
		c0.521-1.058,1.184-1.865,1.99-2.421c0.808-0.555,1.688-0.833,2.643-0.833c1.631,0,2.784,0.516,3.461,1.548
		c0.677,1.033,1.016,2.547,1.016,4.542v8.381h-2.004v-8.381c0-1.562-0.209-2.694-0.625-3.396c-0.417-0.703-1.119-1.054-2.108-1.054
		c-0.503,0-0.998,0.13-1.483,0.39c-0.486,0.26-0.92,0.621-1.302,1.081c-0.382,0.459-0.686,0.998-0.91,1.614
		c-0.227,0.616-0.339,1.271-0.339,1.965c0,1.301-0.005,2.599-0.013,3.891c-0.009,1.293-0.014,2.59-0.014,3.892H120.157z"/>
	<path stroke="#000000" stroke-miterlimit="10" d="M141.369-19.019c-1.128,0-2.104-0.195-2.928-0.586
		c-0.824-0.391-1.506-0.915-2.043-1.574c-0.538-0.659-0.938-1.436-1.197-2.33c-0.261-0.894-0.391-1.843-0.391-2.85
		c0-1.059,0.139-2.043,0.416-2.954s0.689-1.692,1.236-2.343c0.547-0.65,1.232-1.162,2.057-1.536c0.823-0.373,1.773-0.56,2.85-0.56
		s2.021,0.187,2.837,0.56c0.815,0.374,1.497,0.885,2.043,1.536c0.547,0.651,0.959,1.432,1.236,2.343s0.417,1.896,0.417,2.954
		c0,1.007-0.131,1.956-0.391,2.85c-0.261,0.895-0.66,1.671-1.197,2.33c-0.538,0.659-1.22,1.184-2.043,1.574
		C143.447-19.214,142.479-19.019,141.369-19.019z M141.369-20.685c2.933,0,4.398-1.883,4.398-5.648c0-3.834-1.466-5.751-4.398-5.751
		s-4.398,1.917-4.398,5.751C136.971-22.567,138.437-20.685,141.369-20.685z"/>
	<path stroke="#000000" stroke-miterlimit="10" d="M158.834-33.75c0.989,0,1.843,0.169,2.563,0.508
		c0.72,0.338,1.323,0.816,1.809,1.432s0.846,1.357,1.08,2.225c0.234,0.868,0.352,1.831,0.352,2.889c0,1.146-0.13,2.187-0.391,3.124
		c-0.26,0.937-0.646,1.743-1.158,2.42s-1.149,1.201-1.913,1.575c-0.764,0.373-1.648,0.56-2.654,0.56
		c-0.938,0-1.74-0.183-2.407-0.547c-0.669-0.364-1.229-0.867-1.679-1.51h-0.026l-0.078,1.822h-2.134v-21.108h2.056v9.24h0.052
		c0.434-0.781,1.032-1.414,1.796-1.9S157.775-33.75,158.834-33.75z M154.279-24.953c0,0.643,0.104,1.224,0.312,1.744
		c0.209,0.521,0.499,0.963,0.872,1.327s0.812,0.646,1.314,0.846c0.503,0.2,1.041,0.3,1.614,0.3c1.301,0,2.316-0.503,3.045-1.51
		c0.729-1.006,1.093-2.481,1.093-4.425c0-1.734-0.351-3.071-1.054-4.008s-1.652-1.405-2.85-1.405c-0.608,0-1.172,0.13-1.692,0.39
		s-0.98,0.621-1.379,1.081c-0.399,0.459-0.712,0.989-0.938,1.587s-0.338,1.236-0.338,1.913V-24.953z"/>
	<path stroke="#000000" stroke-miterlimit="10" d="M170.988-33.412v14.159h-2.082v-14.159H170.988z"/>
	<path stroke="#000000" stroke-miterlimit="10" d="M178.536-40.387v21.134h-2.03v-21.134H178.536z"/>
	<path stroke="#000000" stroke-miterlimit="10" d="M186.291-33.412v14.159h-2.082v-14.159H186.291z"/>
	<path stroke="#000000" stroke-miterlimit="10" d="M198.446-21.257c0.19-0.139,0.286-0.096,0.286,0.13v1.457
		c-0.347,0.261-0.759,0.442-1.236,0.547s-0.95,0.156-1.418,0.156c-1.302,0.017-2.243-0.247-2.824-0.794
		c-0.582-0.547-0.872-1.471-0.872-2.771v-9.318h-2.551v-1.562h2.551v-3.54h2.057v3.54h3.773v1.562h-3.773v9.032
		c0,0.398,0.021,0.732,0.064,1.002c0.043,0.269,0.131,0.485,0.261,0.65s0.316,0.286,0.56,0.364c0.242,0.078,0.563,0.117,0.963,0.117
		c0.313,0,0.668-0.048,1.067-0.144C197.752-20.923,198.116-21.066,198.446-21.257z"/>
	<path stroke="#000000" stroke-miterlimit="10" d="M201.153-14.386c0-0.14,0.086-0.2,0.26-0.183
		c0.382,0.104,0.755,0.156,1.119,0.156c0.59,0,1.141-0.16,1.652-0.481s0.941-0.941,1.289-1.861l0.963-2.395v-0.104l-5.882-14.159
		h2.264l4.19,10.802l0.469,1.327l0.391-1.327l3.748-10.802h2.16l-6.039,15.929c-0.277,0.711-0.568,1.357-0.871,1.939
		c-0.304,0.581-0.655,1.08-1.055,1.496c-0.399,0.417-0.858,0.737-1.379,0.963s-1.129,0.339-1.822,0.339
		c-0.59,0-1.076-0.069-1.457-0.208V-14.386z"/>
</g>
<g>
	<path d="M169.799-39.474c0.187,0.534,0.499,1.038,0.938,1.514c0.44,0.475,0.977,0.813,1.611,1.016
		c-0.648,0.115-1.182,0.415-1.601,0.896c-0.418,0.483-0.735,1.027-0.949,1.632c-0.232-0.605-0.549-1.149-0.954-1.632
		c-0.4-0.482-0.929-0.781-1.576-0.896c0.634-0.202,1.17-0.541,1.61-1.016C169.318-38.436,169.624-38.94,169.799-39.474z"/>
</g>
<g>
	<path d="M145.759,10.648c0.15,0.429,0.401,0.834,0.754,1.216c0.354,0.382,0.785,0.654,1.295,0.816
		c-0.521,0.092-0.95,0.333-1.286,0.721s-0.591,0.825-0.763,1.312c-0.188-0.487-0.441-0.924-0.768-1.312
		c-0.32-0.388-0.746-0.628-1.266-0.721c0.509-0.163,0.939-0.434,1.294-0.816C145.372,11.482,145.618,11.077,145.759,10.648z"/>
</g>
<g>
	<path d="M185.049-39.474c0.187,0.534,0.499,1.038,0.938,1.514c0.44,0.475,0.977,0.813,1.611,1.016
		c-0.648,0.115-1.182,0.415-1.601,0.896c-0.418,0.483-0.735,1.027-0.949,1.632c-0.232-0.605-0.549-1.149-0.954-1.632
		c-0.4-0.482-0.929-0.781-1.576-0.896c0.634-0.202,1.17-0.541,1.61-1.016C184.568-38.436,184.874-38.94,185.049-39.474z"/>
</g>
<g>
	<path d="M107.226,16.161c0.86,0,1.654,0.157,2.38,0.47c0.726,0.314,1.349,0.789,1.869,1.426c0.52,0.636,0.928,1.42,1.224,2.353
		c0.295,0.933,0.444,2.017,0.444,3.254c0,1.326-0.157,2.496-0.471,3.509c-0.313,1.013-0.753,1.865-1.317,2.555
		c-0.564,0.69-1.242,1.214-2.03,1.572c-0.789,0.358-1.667,0.538-2.635,0.538c-1.739,0-2.994-0.672-3.765-2.016h-0.054l-0.134,1.774
		H99.75V9.438h3.092v8.82h0.027c0.52-0.717,1.161-1.246,1.923-1.586C105.554,16.332,106.366,16.161,107.226,16.161z M102.843,25.491
		c0,1.256,0.336,2.206,1.008,2.852c0.672,0.646,1.52,0.968,2.542,0.968c1.183,0,2.083-0.461,2.702-1.385
		c0.619-0.923,0.928-2.335,0.928-4.235c0-1.686-0.301-2.958-0.901-3.819c-0.601-0.86-1.412-1.291-2.433-1.291
		c-0.538,0-1.04,0.117-1.506,0.35c-0.466,0.233-0.875,0.556-1.224,0.968c-0.349,0.413-0.623,0.896-0.82,1.452
		c-0.197,0.556-0.296,1.157-0.296,1.803V25.491z"/>
	<path d="M124.678,19.2c-0.233-0.144-0.475-0.242-0.726-0.296s-0.574-0.081-0.968-0.081c-0.413,0-0.816,0.103-1.21,0.31
		c-0.395,0.206-0.744,0.502-1.048,0.887c-0.306,0.386-0.556,0.856-0.753,1.413c-0.197,0.555-0.295,1.183-0.295,1.881v8.283h-3.093
		V16.511h3.039l0.081,1.721c0.358-0.573,0.851-1.057,1.479-1.452c0.627-0.394,1.291-0.592,1.989-0.592
		c0.413,0,0.816,0.036,1.21,0.107c0.394,0.072,0.744,0.206,1.048,0.404L124.678,19.2z"/>
	<path d="M128.361,17.721c0.86-0.574,1.78-1.017,2.757-1.331c0.978-0.313,2.039-0.47,3.187-0.47c1.829,0,3.15,0.43,3.967,1.291
		c0.815,0.86,1.223,2.241,1.223,4.141v10.246h-2.796l-0.134-1.937h-0.028c-0.466,0.681-1.106,1.228-1.922,1.64
		c-0.816,0.413-1.681,0.619-2.596,0.619c-1.577,0.018-2.797-0.359-3.657-1.13c-0.86-0.77-1.291-1.882-1.291-3.334
		s0.44-2.631,1.318-3.536c0.878-0.904,2.16-1.482,3.845-1.734l4.195-0.672v-0.162c0-1.039-0.192-1.77-0.577-2.191
		c-0.386-0.421-1.063-0.632-2.03-0.632c-0.683,0-1.372,0.108-2.071,0.323c-0.699,0.215-1.407,0.564-2.124,1.049L128.361,17.721z
		 M136.51,23.799l-3.389,0.457c-0.933,0.125-1.658,0.43-2.178,0.914c-0.52,0.483-0.779,1.155-0.779,2.016
		c0,0.754,0.219,1.305,0.658,1.655c0.439,0.349,1.036,0.523,1.788,0.523c0.502,0,0.985-0.107,1.452-0.322
		c0.466-0.216,0.879-0.502,1.237-0.86s0.649-0.767,0.874-1.224c0.224-0.457,0.336-0.928,0.336-1.412V23.799z"/>
	<path d="M147.373,16.511v15.086h-3.093V16.511H147.373z"/>
	<path d="M164.987,31.569h-3.039v-9.358c0-1.344-0.233-2.285-0.698-2.823c-0.467-0.538-1.157-0.807-2.071-0.807
		c-0.502,0-0.981,0.112-1.438,0.336s-0.86,0.547-1.21,0.968c-0.351,0.421-0.628,0.927-0.834,1.519
		c-0.206,0.592-0.31,1.256-0.31,1.99v8.175h-3.065V16.511h2.958c0.036,0.341,0.063,0.672,0.081,0.995
		c0.018,0.323,0.044,0.646,0.081,0.968h0.026c0.466-0.663,1.089-1.21,1.869-1.64c0.779-0.43,1.627-0.646,2.541-0.646
		c3.406,0,5.109,2.053,5.109,6.158V31.569z"/>
</g>
</svg>
