<?xml version="1.0" encoding="utf-8"?>
<!-- Generator: Adobe Illustrator 25.3.1, SVG Export Plug-In . SVG Version: 6.00 Build 0)  -->
<svg version="1.1" xmlns="http://www.w3.org/2000/svg" xmlns:xlink="http://www.w3.org/1999/xlink" x="0px" y="0px"
	 viewBox="0 0 1200 700" style="enable-background:new 0 0 1200 700;" xml:space="preserve">
<style type="text/css">
	.st0{fill:url(#SVGID_1_);}
	.st1{fill:#FFFFFF;}
	.st2{font-family:'NanumBarunGothicOTFLight-KSCpc-EUC-H';}
	.st3{font-size:44.5115px;}
	.st4{fill:url(#SVGID_2_);}
	.st5{fill:#E4CA1F;}
	.st6{fill:#423F3F;}
	.st7{fill:#2FB1C6;}
	.st8{fill:url(#SVGID_3_);}
	.st9{font-family:'NanumBarunGothicOTF-KSCpc-EUC-H';}
	.st10{font-size:30.539px;}
	.st11{font-size:28.0964px;}
	.st12{fill:#C4C4C4;}
	.st13{font-size:14.2197px;}
	.st14{fill:#F9ED16;}
	.st15{font-size:17.541px;}
	.st16{fill:#FFCC4D;stroke:#EEF2F5;stroke-dasharray:180;stroke-dashoffset:180;}
	.st17{fill:#66471B;stroke:#EEF2F5;stroke-dasharray:180;stroke-dashoffset:180;}
</style>
<g id="참고자료">
</g>
<g id="배경">
	<linearGradient id="SVGID_1_" gradientUnits="userSpaceOnUse" x1="-2.8261" y1="350.5652" x2="1202.3914" y2="350.5652">
		<stop  offset="0" style="stop-color:#3A79BD"/>
		<stop  offset="1" style="stop-color:#5572B7"/>
	</linearGradient>
	<path class="st0" d="M1130.39,691H69.17c-39.76,0-72-32.24-72-72V82.13c0-39.76,32.24-72,72-72h1061.22c39.76,0,72,32.24,72,72V619
		C1202.39,658.76,1170.16,691,1130.39,691z"/>
	<path class="st1" d="M307.61,706.2H15.43c-6.6,0-12-5.4-12-12v-62.09c0-6.6,5.4-12,12-12h292.17c6.6,0,12,5.4,12,12v62.09
		C319.61,700.8,314.21,706.2,307.61,706.2z"/>
</g>
<g id="Layer_3">
	<g>
		<path class="st1" d="M169.19,175.52v83.06h-9.66V217h-40.49v41.59h-9.66v-83.06h9.66v33.25h40.49v-33.25H169.19z"/>
		<path class="st1" d="M185.43,179.58c0-3.95,2.85-6.91,6.8-6.91c3.73,0,6.8,2.96,6.8,6.91c0,3.73-3.07,6.69-6.8,6.69
			C188.29,186.27,185.43,183.31,185.43,179.58z M196.96,198.67v59.91h-9.55v-59.91H196.96z"/>
		<path class="st1" d="M211.53,248.31c0-3.95,2.96-6.91,7.68-6.91s8.01,3.95,8.01,9.11c0,9.22-6.47,16.57-14.26,19.31l-1.98-4.17
			c4.28-1.54,7.35-4.72,8.45-8.56c0.44-1.76,0.22-2.41-1.32-2.41C214.39,254.67,211.53,251.71,211.53,248.31z"/>
		<path class="st1" d="M285.04,176.57l28.42,83.06h-9.99l-7.46-23.7h-33.91l-7.57,23.7h-9.99l28.31-83.06H285.04z M279.01,183.48
			l-2.19,7.68l-11.85,36.87h28.09l-11.85-36.87L279.01,183.48z"/>
		<path class="st1" d="M335.63,175.17v83.06h-9.66v-83.06H335.63z"/>
	</g>
	<text transform="matrix(1 0 0 1 93.5774 426.7144)"><tspan x="0" y="0" class="st1 st2 st3">카톡 채팅방에 적용된 AI</tspan><tspan x="0" y="53.41" class="st1 st2 st3">더욱 더 편하게 채팅해요!</tspan></text>
	<text transform="matrix(1 0 0 1 101.4155 328.7142)" class="st1 st2 st3">AI, 카톡 채팅방에 등장</text>
	<linearGradient id="SVGID_2_" gradientUnits="userSpaceOnUse" x1="1151.9285" y1="611.0119" x2="864.9719" y2="483.7076">
		<stop  offset="0" style="stop-color:#2EC3EA"/>
		<stop  offset="0.0319" style="stop-color:#4EC8EB"/>
		<stop  offset="0.1333" style="stop-color:#85D4F0"/>
		<stop  offset="0.2414" style="stop-color:#ACE0F4"/>
		<stop  offset="0.3556" style="stop-color:#CAEBF7"/>
		<stop  offset="0.4783" style="stop-color:#E0F3FA"/>
		<stop  offset="0.6132" style="stop-color:#F0F9FD"/>
		<stop  offset="0.77" style="stop-color:#FAFDFE"/>
		<stop  offset="1" style="stop-color:#FFFFFF"/>
	</linearGradient>
	<path class="st4" d="M1003.35,643H954.3c-59.83,0-108.78-48.95-108.78-108.78v0c0-59.83,48.95-108.78,108.78-108.78h49.04
		c59.83,0,108.78,48.95,108.78,108.78v0C1112.13,594.05,1063.18,643,1003.35,643z"/>
	<path class="st5" d="M1131.43,127.38H925.35c-6.6,0-12-5.4-12-12V45.47c0-6.6,5.4-12,12-12h206.09c6.6,0,12,5.4,12,12v1.7v54.78
		v13.43C1143.43,121.98,1138.03,127.38,1131.43,127.38z"/>
	<ellipse class="st1" cx="948.74" cy="517.61" rx="9.83" ry="15.16"/>
	<ellipse class="st1" cx="1005.09" cy="515.52" rx="9.83" ry="15.16"/>
	<path class="st6" d="M993.61,607h-52c-38.12,0-69.3-31.19-69.3-69.3v-9.57c0-38.12,31.19-69.3,69.3-69.3h52
		c38.12,0,69.3,31.19,69.3,69.3v9.57C1062.91,575.81,1031.73,607,993.61,607z"/>
	<path class="st7" d="M926.39,539.17L926.39,539.17c-4.45,0-8.09-3.64-8.09-8.09v-32.87c0-4.45,3.64-8.09,8.09-8.09l0,0
		c4.45,0,8.09,3.64,8.09,8.09v32.87C934.48,535.53,930.84,539.17,926.39,539.17z"/>
	<path class="st7" d="M993.96,538.65L993.96,538.65c-4.45,0-8.09-3.64-8.09-8.09V497.7c0-4.45,3.64-8.09,8.09-8.09l0,0
		c4.45,0,8.09,3.64,8.09,8.09v32.87C1002.04,535.01,998.4,538.65,993.96,538.65z"/>
	<g>
	</g>
	<path class="st7" d="M928.48,554.48c1.48,11.69,16.36,20.87,34.52,20.87c18.16,0,33.04-9.18,34.52-20.87H928.48z"/>
	<linearGradient id="SVGID_3_" gradientUnits="userSpaceOnUse" x1="1120.2772" y1="742.1606" x2="891.7721" y2="640.7875">
		<stop  offset="0" style="stop-color:#2EC3EA"/>
		<stop  offset="0.0319" style="stop-color:#4EC8EB"/>
		<stop  offset="0.1333" style="stop-color:#85D4F0"/>
		<stop  offset="0.2414" style="stop-color:#ACE0F4"/>
		<stop  offset="0.3556" style="stop-color:#CAEBF7"/>
		<stop  offset="0.4783" style="stop-color:#E0F3FA"/>
		<stop  offset="0.6132" style="stop-color:#F0F9FD"/>
		<stop  offset="0.77" style="stop-color:#FAFDFE"/>
		<stop  offset="1" style="stop-color:#FFFFFF"/>
	</linearGradient>
	<path class="st8" d="M1093.6,687.97c-19.65-27.72-52.59-46-89.73-46h-49.04c-37.14,0-70.08,18.28-89.73,46H1093.6z"/>
	<text transform="matrix(1 0 0 1 951.1096 89.0861)" class="st9 st10">안녕하세요!</text>
	<path class="st1" d="M1131.43,384.74H797c-6.6,0-12-5.4-12-12v-69.91c0-6.6,5.4-12,12-12h334.43c6.6,0,12,5.4,12,12v69.91
		C1143.43,379.34,1138.03,384.74,1131.43,384.74z"/>
	<text transform="matrix(1 0 0 1 820.825 348.8476)" class="st9 st10">제가 궁금하시다면?</text>
	<g>
		<path class="st1" d="M1131.43,253.29H797c-6.6,0-12-5.4-12-12v-69.91c0-6.6,5.4-12,12-12h334.43c6.6,0,12,5.4,12,12v69.91
			C1143.43,247.89,1138.03,253.29,1131.43,253.29z"/>
		<text transform="matrix(1 0 0 1 813.6726 216.1262)" class="st9 st11">저는 많은 것을 할 수 있어요</text>
		<text transform="matrix(1 0 0 1 875.723 238.5252)" class="st12 st9 st13">대화요약, 말투변경, 추천 기능 등 </text>
	</g>
	<g>
		<path class="st1" d="M805.87,660.22H453.52c-6.6,0-12-5.4-12-12V578.3c0-6.6,5.4-12,12-12h352.35c6.6,0,12,5.4,12,12v69.91
			C817.87,654.82,812.47,660.22,805.87,660.22z"/>
	</g>
	<text transform="matrix(1 0 0 1 469.9896 625.5559)" class="st9 st10">좌측 더보기를 눌러주세요!</text>
	<text transform="matrix(1 0 0 1 427.2109 653.0791)" class="st14 st9 st15">1</text>
	<text transform="matrix(1 0 0 1 767.3849 379.6878)" class="st14 st9 st15">1</text>
	<text transform="matrix(1 0 0 1 762.6892 247.6878)" class="st14 st9 st15">1</text>
	<text transform="matrix(1 0 0 1 887.9066 122.4704)" class="st14 st9 st15">1</text>
	<path class="st16" d="M1098.04,341.6c0,7.51-6.09,13.6-13.6,13.6c-7.51,0-13.6-6.09-13.6-13.6c0-7.51,6.09-13.6,13.6-13.6
		C1091.95,328,1098.04,334.09,1098.04,341.6"/>
	<ellipse class="st17" cx="1079.53" cy="340.46" rx="1.89" ry="2.64"/>
	<path class="st17" d="M1092.34,341.44c-0.05-0.1-1.13-2.49-3.37-2.49c-2.23,0-3.32,2.39-3.37,2.49c-0.07,0.16-0.02,0.34,0.11,0.45
		c0.13,0.11,0.32,0.11,0.46,0.01c0.01-0.01,0.95-0.68,2.8-0.68c1.83,0,2.78,0.67,2.8,0.68c0.07,0.05,0.15,0.07,0.23,0.07
		c0.08,0,0.17-0.03,0.24-0.08C1092.37,341.79,1092.41,341.6,1092.34,341.44z M1075.37,337.41c-0.16,0-0.32-0.05-0.45-0.15
		c-0.33-0.25-0.4-0.72-0.15-1.06c2.46-3.29,5.76-3.32,5.89-3.32c0.42,0,0.76,0.34,0.76,0.76c0,0.42-0.34,0.75-0.75,0.76
		c-0.12,0-2.7,0.06-4.69,2.72C1075.83,337.3,1075.6,337.41,1075.37,337.41z M1092.75,339.01c-0.23,0-0.46-0.1-0.61-0.3
		c-1.96-2.61-5.26-1.99-5.29-1.98c-0.41,0.08-0.81-0.18-0.89-0.59c-0.08-0.41,0.18-0.81,0.59-0.89c0.17-0.04,4.27-0.81,6.8,2.55
		c0.25,0.33,0.18,0.81-0.15,1.06C1093.07,338.97,1092.91,339.01,1092.75,339.01z M1088.41,345.81c-0.14-0.08-0.33-0.07-0.45,0.05
		c-0.01,0.01-0.77,0.65-3.52,0.65c-2.75,0-3.51-0.65-3.51-0.65c-0.12-0.12-0.31-0.14-0.45-0.06c-0.15,0.08-0.22,0.26-0.18,0.42
		c0.01,0.03,0.86,3.31,4.14,3.31s4.14-3.28,4.14-3.31C1088.63,346.06,1088.55,345.9,1088.41,345.81z"/>
	<g>
		<text transform="matrix(1 0 0 1 69.2372 671.7046)" class="st9 st10">AI 더보기</text>
		<circle cx="231.96" cy="663.12" r="27.48"/>
	</g>
	<g>
		<path class="st1" d="M237.63,674.89l-2.94-3.04l7.45-7.45h-25.49v-4.2h25.49l-7.45-7.45l2.94-3.04l12.59,12.59L237.63,674.89z"/>
	</g>
</g>
</svg>
