<?xml version="1.0" encoding="utf-8"?>
<!-- Generator: Adobe Illustrator 25.3.1, SVG Export Plug-In . SVG Version: 6.00 Build 0)  -->
<svg version="1.1" id="Layer_1" xmlns="http://www.w3.org/2000/svg" xmlns:xlink="http://www.w3.org/1999/xlink" x="0px" y="0px"
	 viewBox="0 0 430 620" style="enable-background:new 0 0 430 620;" xml:space="preserve">
<style type="text/css">
	.st0{fill:#EE2133;}
	.st1{fill:none;stroke:#FCCF11;stroke-width:10;stroke-miterlimit:10;}
	.st2{fill:#F7BB17;}
	.st3{fill:#FCCF11;}
	.st4{font-family:'TmonMonsoriBlack';}
	.st5{font-size:118.2615px;}
	.st6{letter-spacing:-6;}
	.st7{font-size:76.4554px;}
	.st8{letter-spacing:-4;}
</style>
<g>
	<polygon class="st0" points="146.43,41.77 335.31,39.19 310.78,159 171.57,159 	"/>
	<g>
		<polygon class="st0" points="320.32,483.34 416.7,110.25 335.31,39.19 249.65,425.6 		"/>
		<line class="st1" x1="409.03" y1="102.65" x2="317.44" y2="447"/>
		<line class="st1" x1="350.3" y1="51.89" x2="269.04" y2="403.86"/>
		<polygon class="st0" points="161.42,485.42 65.05,112.34 146.43,41.28 232.1,427.68 		"/>
		<line class="st1" x1="72.71" y1="104.74" x2="164.31" y2="449.09"/>
		<line class="st1" x1="131.44" y1="53.97" x2="212.71" y2="405.94"/>
		<line class="st1" x1="150.99" y1="60.91" x2="330.15" y2="60.91"/>
		<line class="st1" x1="168.75" y1="136.39" x2="317.23" y2="137.78"/>
	</g>
</g>
<g>
	<ellipse class="st2" cx="246.61" cy="462.31" rx="122.09" ry="121.68"/>
	<circle class="st3" cx="246.21" cy="462.31" r="108.39"/>
	<text transform="matrix(1 0 0 1 174.8564 497.4482)"><tspan x="0" y="0" class="st0 st4 st5 st6">1</tspan><tspan x="64.21" y="0" class="st0 st4 st7 st8">st</tspan></text>
</g>
</svg>
